<svg width="30" height="30" viewBox="0 0 30 30" fill="none" xmlns="http://www.w3.org/2000/svg">
<circle opacity="0.65" cx="15" cy="15" r="15" fill="white"/>
<path d="M13.5018 15.5007L17.7293 10.6685C17.9027 10.4846 18 10.2363 18 9.97756C18 9.7188 17.9027 9.4705 17.7293 9.28663C17.6441 9.19585 17.5426 9.12376 17.4307 9.07455C17.3187 9.02534 17.1986 9 17.0772 9C16.9558 9 16.8357 9.02534 16.7237 9.07455C16.6118 9.12376 16.5103 9.19585 16.4251 9.28663L11.2703 14.8084C11.0971 14.9927 11 15.2411 11 15.5C11 15.7589 11.0971 16.0073 11.2703 16.1916L16.4251 21.7134C16.5103 21.8042 16.6118 21.8762 16.7237 21.9254C16.8357 21.9747 16.9558 22 17.0772 22C17.1986 22 17.3187 21.9747 17.4307 21.9254C17.5426 21.8762 17.6441 21.8042 17.7293 21.7134C17.9027 21.5295 18 21.2812 18 21.0224C18 20.7637 17.9027 20.5154 17.7293 20.3315L13.5018 15.5007Z" fill="#BCBCBC"/>
</svg>
