<svg width="16" height="14" viewBox="0 0 16 14" fill="none" xmlns="http://www.w3.org/2000/svg">
<path d="M8.875 11.6667H11.2083V14H8.875V11.6667Z" fill="#222222"/>
<path d="M12.9587 11.6667H15.2921V14H12.9587V11.6667Z" fill="#222222"/>
<path d="M8.875 7.58331H11.2083V9.91665H8.875V7.58331Z" fill="#222222"/>
<path d="M12.9587 7.58331H15.2921V9.91665H12.9587V7.58331Z" fill="#222222"/>
<path d="M15.2918 4.08333H11.7918V1.75C11.7918 0.758333 11.0335 0 10.0418 0H6.54183C5.55016 0 4.79183 0.758333 4.79183 1.75V4.08333H1.29183C0.941829 4.08333 0.708496 4.31667 0.708496 4.66667V4.78333L1.81683 11.8417C1.87516 12.425 2.40016 12.8333 2.9835 12.8333H7.7085V11.6667H2.9835L1.99183 5.25H15.2918V4.08333ZM5.9585 1.75C5.9585 1.4 6.19183 1.16667 6.54183 1.16667H10.0418C10.3918 1.16667 10.6252 1.4 10.6252 1.75V4.08333H5.9585V1.75Z" fill="#222222"/>
</svg>
