<svg width="18" height="13" viewBox="0 0 18 13" fill="none" xmlns="http://www.w3.org/2000/svg">
<path d="M17.1308 2.33333C16.3053 2.33333 14.7131 2.33333 14.7131 2.33333C14.4182 0.991667 13.2388 0 11.8235 0C10.4083 0 9.22885 0.991667 8.934 2.33333C8.934 2.33333 1.44489 2.33333 0.619219 2.33333C-0.206451 2.33333 -0.206362 3.5 0.619219 3.5C1.4448 3.5 8.934 3.5 8.934 3.5C9.22885 4.84167 10.4083 5.83333 11.8235 5.83333C13.2388 5.83333 14.4182 4.84167 14.7131 3.5C14.7131 3.5 16.3053 3.5 17.1308 3.5C17.9564 3.5 17.9564 2.33333 17.1308 2.33333ZM11.8235 4.66667C10.821 4.66667 10.0544 3.90833 10.0544 2.91667C10.0544 1.925 10.821 1.16667 11.8235 1.16667C12.826 1.16667 13.5926 1.925 13.5926 2.91667C13.5926 3.90833 12.826 4.66667 11.8235 4.66667Z" fill="#222222"/>
<path d="M0.619219 10.6667C1.4448 10.6667 3.03699 10.6667 3.03699 10.6667C3.33184 12.0083 4.51124 13 5.92653 13C7.34181 13 8.52121 12.0083 8.81606 10.6667C8.81606 10.6667 16.3053 10.6667 17.1308 10.6667C17.9564 10.6667 17.9564 9.50001 17.1308 9.50001C16.3053 9.50001 8.81606 9.50001 8.81606 9.50001C8.52121 8.15834 7.34181 7.16667 5.92653 7.16667C4.51124 7.16667 3.33184 8.15834 3.03699 9.50001C3.03699 9.50001 1.44489 9.50001 0.619219 9.50001C-0.206451 9.50001 -0.206362 10.6667 0.619219 10.6667ZM5.92653 8.33334C6.92902 8.33334 7.69563 9.09167 7.69563 10.0833C7.69563 11.075 6.92902 11.8333 5.92653 11.8333C4.92404 11.8333 4.15742 11.075 4.15742 10.0833C4.15742 9.09167 4.92404 8.33334 5.92653 8.33334Z" fill="#222222"/>
</svg>
