<svg width="35" height="35" viewBox="0 0 35 35" fill="none" xmlns="http://www.w3.org/2000/svg">
<rect width="35" height="35" rx="5" fill="#222222"/>
<path d="M25.7522 16.3847H18.0138V19.4998H22.4345C22.2439 20.5068 21.6656 21.3584 20.7939 21.929C20.0571 22.4115 19.1169 22.6968 18.0117 22.6968C15.872 22.6968 14.0622 21.2808 13.4154 19.3782C13.2526 18.8957 13.1583 18.3797 13.1583 17.8489C13.1583 17.3182 13.2526 16.8022 13.4154 16.3197C14.0643 14.4192 15.8742 13.0032 18.0138 13.0032C19.2197 13.0032 20.3013 13.4102 21.1537 14.2073L23.5097 11.8977C22.0854 10.5971 20.2285 9.79999 18.0138 9.79999C14.8033 9.79999 12.0253 11.604 10.6738 14.2346C10.117 15.3212 9.79999 16.5504 9.79999 17.851C9.79999 19.1516 10.117 20.3788 10.6738 21.4654C12.0253 24.0959 14.8033 25.9 18.0138 25.9C20.2328 25.9 22.0918 25.1784 23.4498 23.9491C25.0026 22.5478 25.9 20.4837 25.9 18.0314C25.9 17.4609 25.8486 16.9134 25.7522 16.3847Z" fill="white"/>
</svg>
