<svg width="48" height="45" viewBox="0 0 48 45" fill="none" xmlns="http://www.w3.org/2000/svg">
<path d="M47.0625 7.99976H32.3631C31.8454 7.99976 31.4256 8.42465 31.4256 8.9486C31.4256 9.47255 31.8454 9.89745 32.3631 9.89745H46.125V15.5589H30.9562V8.9486C30.9562 8.42465 30.5364 7.99976 30.0187 7.99976C29.501 7.99976 29.0812 8.42465 29.0812 8.9486V15.5589H18.9188V8.9486C18.9188 8.42465 18.499 7.99976 17.9813 7.99976C17.4637 7.99976 17.0438 8.42465 17.0438 8.9486V15.5589H1.875V9.89745H15.7162C16.2338 9.89745 16.6537 9.47255 16.6537 8.9486C16.6537 8.42465 16.2338 7.99976 15.7162 7.99976H0.9375C0.419719 7.99976 0 8.42465 0 8.9486V16.5078C0 17.0317 0.419719 17.4566 0.9375 17.4566H2.12222V44.0512C2.12222 44.5751 2.54203 45 3.05972 45H44.9404C45.4581 45 45.8779 44.5751 45.8779 44.0512V17.4566H47.0625C47.5802 17.4566 48 17.0317 48 16.5078V8.9486C48 8.42455 47.5802 7.99976 47.0625 7.99976ZM3.99722 17.4566H19.3102V43.1023H3.99722V17.4566ZM21.1852 43.1023V17.4566H26.8149V43.1023H21.1852ZM44.0028 43.1023H28.6898V17.4566H44.0028V43.1023Z" fill="#222222"/>
<path d="M40.1998 24.6498C39.2638 23.7025 37.4829 24.0184 37.4829 24.0184C37.4829 24.0184 37.8368 22.2581 36.8587 21.2682C35.9074 20.3053 34.3436 20.3155 33.3401 21.2282C32.7733 21.7439 32.5367 22.3336 32.4095 22.9557C32.1554 24.1989 33.0265 28.5351 33.0265 28.5351C33.0265 28.5351 37.2946 29.4134 38.5327 29.153C39.1496 29.023 39.73 28.7849 40.2395 28.211C41.1413 27.1954 41.1513 25.6127 40.1998 24.6498Z" fill="#FDDEF0"/>
<path d="M11.5813 30.085C10.7825 30.8934 11.0489 32.4315 11.0489 32.4315C11.0489 32.4315 9.56479 32.126 8.73013 32.9706C7.91835 33.7923 7.92688 35.1427 8.69638 36.0095C9.13119 36.499 9.62835 36.7034 10.153 36.8132C11.2011 37.0326 14.8571 36.2803 14.8571 36.2803C14.8571 36.2803 15.5976 32.5941 15.378 31.5249C15.2684 30.992 15.0676 30.4907 14.5839 30.0508C13.7275 29.2719 12.3931 29.2633 11.5813 30.085Z" fill="#FDDEF0"/>
<path d="M35.2041 3.10514C34.8392 1.75342 34.0215 0.555309 32.6569 0.134116C32.6569 0.134116 29.0968 -0.945766 25.5379 3.02297C25.3288 2.97041 25.1105 2.94251 24.886 2.94251H23.077C22.8635 2.94251 22.6554 2.96784 22.4556 3.01557C18.8988 -0.944343 15.3432 0.134211 15.3432 0.134211C13.9786 0.555403 13.1609 1.75351 12.796 3.10524C12.2959 4.95729 12.3383 7.13736 12.6031 9.03173C12.8399 10.7246 13.6239 12.4359 15.3432 12.9666C15.3432 12.9666 18.8336 14.0251 22.3573 10.1932C22.5869 10.2574 22.8282 10.2917 23.077 10.2917H24.886C25.1454 10.2917 25.3968 10.2544 25.6351 10.1848C29.1614 14.0265 32.6569 12.9665 32.6569 12.9665C34.3761 12.4358 35.1602 10.7246 35.397 9.03163C35.6617 7.13726 35.7042 4.95719 35.2041 3.10514Z" fill="#FDDEF0"/>
</svg>
