<svg width="13" height="13" viewBox="0 0 13 13" fill="none" xmlns="http://www.w3.org/2000/svg">
<path d="M8.66722 9.23901L9.78665 8.11913C9.93742 7.97017 10.1282 7.8682 10.3358 7.8256C10.5433 7.78301 10.7588 7.80161 10.956 7.87916L12.3203 8.4241C12.5196 8.50503 12.6905 8.64317 12.8115 8.82111C12.9324 8.99905 12.998 9.20882 13 9.42399V11.9237C12.9988 12.0701 12.9681 12.2147 12.9096 12.3489C12.8511 12.4831 12.766 12.604 12.6596 12.7044C12.5531 12.8048 12.4275 12.8827 12.2901 12.9332C12.1528 12.9838 12.0067 13.006 11.8606 12.9986C2.30048 12.4037 0.371468 4.30455 0.00665532 1.20489C-0.0102795 1.05267 0.00519339 0.898596 0.0520562 0.752793C0.098919 0.60699 0.176109 0.472765 0.27855 0.358949C0.38099 0.245134 0.506358 0.154306 0.646406 0.0924423C0.786455 0.0305785 0.938009 -0.00091948 1.0911 2.04323e-05H3.50486C3.72026 0.000658256 3.93054 0.065747 4.10865 0.186915C4.28677 0.308082 4.42458 0.479788 4.50435 0.679946L5.04907 2.0448C5.12916 2.24131 5.14959 2.45707 5.10782 2.66514C5.06604 2.8732 4.96392 3.06433 4.81419 3.21467L3.69477 4.33455C3.69477 4.33455 4.33944 8.69907 8.66722 9.23901Z" fill="#F7B5C3"/>
</svg>
