<svg width="20" height="19" viewBox="0 0 20 19" fill="none" xmlns="http://www.w3.org/2000/svg">
<path d="M19.3536 6.69044L13.358 5.8236L10.6778 0.418161C10.6046 0.270163 10.4841 0.150355 10.3354 0.0775313C9.96227 -0.105704 9.50887 0.0469921 9.32232 0.418161L6.64213 5.8236L0.646516 6.69044C0.481218 6.71393 0.330088 6.79145 0.214379 6.90891C0.0744931 7.05195 -0.00259025 7.24438 6.6464e-05 7.44392C0.00272317 7.64346 0.0849026 7.83379 0.228547 7.97309L4.56645 12.1804L3.5416 18.1215C3.51757 18.2597 3.53294 18.4018 3.58598 18.5318C3.63901 18.6617 3.72759 18.7743 3.84166 18.8567C3.95573 18.9391 4.09074 18.9881 4.23137 18.9981C4.37199 19.0081 4.51262 18.9787 4.63729 18.9132L10 16.1083L15.3628 18.9132C15.5092 18.9907 15.6792 19.0165 15.8422 18.9883C16.2531 18.9179 16.5293 18.5303 16.4585 18.1215L15.4336 12.1804L19.7715 7.97309C19.8896 7.85798 19.9675 7.70763 19.9912 7.54319C20.0549 7.13208 19.7668 6.75152 19.3536 6.69044Z" fill="#BCBCBC"/>
</svg>
