<svg width="35" height="35" viewBox="0 0 35 35" fill="none" xmlns="http://www.w3.org/2000/svg">
<rect width="35" height="35" rx="5" fill="white"/>
<path d="M17.4599 6.01385C11.6029 6.2896 6.9824 11.1318 7.00005 16.9524C7.00295 18.6657 7.41315 20.3537 8.19681 21.8773L7.02983 27.5037C7.01559 27.5741 7.01932 27.6469 7.04067 27.7154C7.06202 27.7839 7.10031 27.846 7.15198 27.8958C7.20366 27.9456 7.26706 27.9815 7.33632 28.0004C7.40558 28.0192 7.47847 28.0202 7.54824 28.0034L13.1008 26.6974C14.5714 27.4242 16.1858 27.8131 17.8261 27.8357C23.8121 27.9273 28.8021 23.2086 28.9885 17.2689C29.1892 10.8991 23.8959 5.70831 17.4599 6.01274V6.01385ZM24.0856 22.9638C23.2854 23.7611 22.3356 24.3928 21.2908 24.8224C20.246 25.2521 19.1267 25.4713 17.997 25.4676C16.6679 25.4717 15.3561 25.1665 14.1652 24.5764L13.392 24.1936L9.98699 24.9944L10.7039 21.5409L10.3223 20.7997C9.70363 19.6004 9.38281 18.2698 9.38696 16.9204C9.38696 14.6372 10.2826 12.4896 11.9084 10.8759C13.529 9.2718 15.7168 8.37168 17.997 8.37097C20.2979 8.37097 22.4598 9.26 24.0856 10.8748C24.8867 11.6642 25.5223 12.6052 25.9554 13.6431C26.3885 14.6809 26.6105 15.7947 26.6082 16.9193C26.6082 19.1826 25.6982 21.3644 24.0856 22.9649V22.9638Z" fill="#222222"/>
<path d="M23.3345 19.2862L21.2046 18.6795C21.0671 18.6401 20.9216 18.6383 20.7833 18.6744C20.6449 18.7105 20.5188 18.7831 20.4181 18.8847L19.8975 19.4119C19.7898 19.521 19.6523 19.596 19.5022 19.6273C19.3521 19.6587 19.1961 19.6452 19.0537 19.5884C18.0467 19.1836 15.9267 17.3129 15.3851 16.3764C15.3092 16.2442 15.2745 16.0922 15.2855 15.9401C15.2965 15.788 15.3527 15.6427 15.4469 15.5227L15.9013 14.9381C15.9888 14.8261 16.0442 14.6924 16.0615 14.5513C16.0788 14.4103 16.0573 14.2672 15.9995 14.1373L15.1038 12.1254C15.0532 12.013 14.9771 11.9138 14.8817 11.8357C14.7862 11.7576 14.6739 11.7028 14.5537 11.6754C14.4334 11.648 14.3085 11.6489 14.1886 11.678C14.0688 11.7071 13.9573 11.7636 13.863 11.8431C13.2684 12.3427 12.5625 13.1005 12.4776 13.9421C12.3265 15.4234 12.9662 17.2908 15.3862 19.5343C18.1823 22.1253 20.4225 22.4683 21.8796 22.1165C22.7069 21.9179 23.3687 21.1205 23.7845 20.4686C23.851 20.365 23.8923 20.2473 23.905 20.1249C23.9178 20.0025 23.9016 19.8789 23.8578 19.7638C23.814 19.6488 23.7439 19.5457 23.653 19.4627C23.5621 19.3798 23.453 19.3193 23.3345 19.2862Z" fill="#222222"/>
</svg>
