<svg width="239" height="85" viewBox="0 0 239 85" fill="none" xmlns="http://www.w3.org/2000/svg">
<path opacity="0.5" d="M77.504 67.456H65.44V83H43.052V67.456H0.132V52.492L36.556 1.79999H60.336L27.276 49.244H43.748V35.44H65.44V49.244H77.504V67.456ZM118.011 84.624C111.051 84.624 104.864 82.9613 99.4507 79.636C94.0373 76.3107 89.784 71.4773 86.6907 65.136C83.6747 58.7173 82.1667 51.1387 82.1667 42.4C82.1667 33.6613 83.6747 26.1213 86.6907 19.78C89.784 13.3613 94.0373 8.48933 99.4507 5.164C104.864 1.83866 111.051 0.175995 118.011 0.175995C124.893 0.175995 131.041 1.83866 136.455 5.164C141.868 8.48933 146.083 13.3613 149.099 19.78C152.192 26.1213 153.739 33.6613 153.739 42.4C153.739 51.1387 152.192 58.7173 149.099 65.136C146.083 71.4773 141.868 76.3107 136.455 79.636C131.041 82.9613 124.893 84.624 118.011 84.624ZM118.011 65.832C121.877 65.832 124.932 63.976 127.175 60.264C129.495 56.4747 130.655 50.52 130.655 42.4C130.655 34.28 129.495 28.364 127.175 24.652C124.932 20.8627 121.877 18.968 118.011 18.968C114.067 18.968 110.935 20.8627 108.615 24.652C106.372 28.364 105.251 34.28 105.251 42.4C105.251 50.52 106.372 56.4747 108.615 60.264C110.935 63.976 114.067 65.832 118.011 65.832ZM238.137 67.456H226.073V83H203.685V67.456H160.765V52.492L197.189 1.79999H220.969L187.909 49.244H204.381V35.44H226.073V49.244H238.137V67.456Z" fill="white"/>
</svg>
