<svg width="6" height="12" viewBox="0 0 6 12" fill="none" xmlns="http://www.w3.org/2000/svg">
<path d="M2.1444 5.9994L5.76797 10.0882C5.91661 10.2438 6 10.4539 6 10.6728C6 10.8918 5.91661 11.1019 5.76797 11.2575C5.69497 11.3343 5.60796 11.3953 5.51201 11.4369C5.41605 11.4786 5.31306 11.5 5.20903 11.5C5.105 11.5 5.00201 11.4786 4.90605 11.4369C4.81009 11.3953 4.72309 11.3343 4.65009 11.2575L0.231669 6.58522C0.0832266 6.42929 4.61675e-07 6.21905 4.80825e-07 6C4.99975e-07 5.78095 0.0832267 5.57071 0.231669 5.41477L4.65009 0.742534C4.72309 0.665719 4.8101 0.60472 4.90605 0.563082C5.00201 0.521443 5.105 0.500001 5.20903 0.500001C5.31306 0.500001 5.41605 0.521443 5.51201 0.563082C5.60796 0.60472 5.69497 0.665719 5.76797 0.742534C5.91661 0.898117 6 1.10822 6 1.32716C6 1.54611 5.91661 1.75621 5.76797 1.91179L2.1444 5.9994Z" fill="#EC3A87"/>
</svg>
