<svg width="27" height="25" viewBox="0 0 27 25" fill="none" xmlns="http://www.w3.org/2000/svg">
<path d="M2.99213 9.98214C2.69297 9.98184 2.40581 10.098 2.19324 10.3054C1.98066 10.5128 1.85989 10.7946 1.85725 11.0893C1.85603 11.1915 1.87105 11.2932 1.90175 11.3908L4.77791 21.383C4.91121 21.8498 5.1961 22.2606 5.58896 22.5526C5.98181 22.8447 6.46098 23.0018 6.95311 23H19.9042C20.3972 23.0004 20.8771 22.8429 21.2714 22.5513C21.6658 22.2596 21.9532 21.8496 22.0905 21.383L24.9666 11.3908L25 11.0893C24.9974 10.7946 24.8766 10.5128 24.664 10.3054C24.4515 10.098 24.1643 9.98184 23.8651 9.98214H2.99213Z" stroke="#222222" stroke-width="2.2" stroke-linejoin="round"/>
<path d="M21.3573 10.2345C21.3581 10.1639 21.3479 10.0936 21.327 10.0261L19.3696 3.11791C19.2789 2.79522 19.085 2.51118 18.8176 2.30928C18.5503 2.10738 18.2242 1.99875 17.8892 2.00002L9.07532 2.00002C8.73976 1.99972 8.41319 2.10859 8.14482 2.31022C7.87645 2.51185 7.68082 2.79532 7.58741 3.11791L5.63002 10.0261L5.60731 10.2345" stroke="#222222" stroke-width="2.2" stroke-linejoin="round"/>
</svg>
