<svg width="293" height="282" viewBox="0 0 293 282" fill="none" xmlns="http://www.w3.org/2000/svg">
<g filter="url(#filter0_d)">
<path fill-rule="evenodd" clip-rule="evenodd" d="M181.029 169.489C178.743 174.052 175.442 178.108 172.141 181.911C168.586 185.714 165.793 190.023 162.238 193.826C156.905 199.657 151.319 205.234 145.986 210.812C144.716 212.079 143.193 212.333 141.415 211.572C139.384 210.812 137.099 210.305 135.829 208.277C134.051 205.234 131.512 203.46 127.957 203.206C125.672 203.206 124.402 201.685 124.148 199.657C123.64 197.375 122.117 195.854 120.339 194.587C118.308 192.812 116.276 191.038 115.514 188.249C115.26 187.235 113.229 185.714 112.467 185.967C109.166 187.235 108.404 184.7 107.135 182.672C106.627 181.911 105.865 180.643 104.849 180.39C99.7706 179.376 97.9931 175.573 96.4695 171.517C95.9616 170.249 94.9459 168.728 93.9302 168.475C89.8673 167.968 88.8515 164.672 86.8201 162.137C84.7886 159.855 83.0111 157.574 80.9797 155.292C78.9482 153.264 75.6471 151.743 77.6785 147.94C77.6785 147.687 76.9167 146.673 76.4089 146.673C73.6156 145.658 72.0921 144.137 72.0921 140.842C72.0921 139.574 70.3145 138.307 69.5527 137.039C67.7752 134.757 65.9977 132.476 67.0134 129.18C67.2673 127.659 66.2516 125.124 64.982 124.11C61.6809 121.575 61.173 118.025 60.9191 114.73C60.6651 111.941 59.9033 109.913 58.1258 108.138C56.6022 106.617 54.5708 105.096 53.0472 108.392C53.0472 108.645 52.0315 108.645 51.7775 108.392C51.2697 108.138 51.0157 107.631 51.0157 107.124C51.0157 105.096 51.2697 102.815 51.5236 100.786C52.2854 100.279 53.0472 99.7723 53.555 99.0118L53.809 99.2653C53.0472 99.7723 52.5393 100.279 51.7775 101.04C50.2539 100.533 50 99.2653 50 97.7442C50.2539 94.9556 50.2539 92.4204 50.7618 89.6318C51.5236 84.815 52.7932 80.2517 53.555 75.435C53.809 73.9139 55.0786 73.4069 56.0944 72.6463C57.1101 71.6323 57.6179 69.8577 58.6337 68.5901L58.3797 68.8436C61.4269 64.0268 64.982 59.7171 66.5056 53.8863C67.2673 51.0976 70.3145 48.816 72.5999 46.5343C79.2021 39.943 87.3279 35.6332 96.2156 32.8446C102.056 30.8164 108.15 31.8305 113.991 33.0981C117.292 33.6051 120.085 36.6473 123.894 36.1402C124.402 36.1402 125.164 36.9008 125.926 37.4078C127.957 38.9289 129.988 40.1965 131.766 41.7176C134.305 43.9992 137.099 46.2808 139.13 49.0695C139.892 50.0835 139.638 52.1117 139.13 53.6327C138.622 54.9003 137.352 55.4073 136.337 56.6749C135.321 57.9425 134.813 59.2101 135.321 60.9847C136.083 63.7733 134.559 66.562 133.29 69.3506C129.735 69.3506 129.735 69.3506 128.973 74.1674C130.75 72.1393 132.02 70.6182 133.544 69.0971C132.782 71.1252 132.528 73.1533 133.29 75.435H133.036C134.813 73.1533 136.845 70.6182 138.622 68.3366C140.654 65.8014 142.431 62.7593 146.24 62.5057C147.002 62.5057 147.764 61.9987 148.272 61.4917C150.557 59.2101 152.081 55.9144 154.874 54.3933C157.667 52.6187 160.206 50.8441 162.238 48.3089C165.031 44.7597 168.078 41.2105 171.125 37.6613C171.887 36.6473 173.157 35.6332 174.426 35.1262C181.537 32.591 188.647 29.5489 196.519 30.0559C198.55 30.0559 200.328 30.3094 202.359 30.3094C207.184 30.3094 211.501 31.577 214.548 35.6332C222.674 40.7035 227.498 48.816 233.846 55.6609C239.433 61.7452 243.242 69.6041 242.988 77.7166C242.734 84.815 241.464 92.4204 238.163 99.0118C229.53 114.983 220.134 130.701 209.977 145.912C206.168 151.743 201.851 157.574 196.772 162.39C192.456 166.447 187.885 170.503 184.076 174.813C183.822 175.32 182.552 175.066 181.791 175.32C182.044 174.559 182.298 173.799 182.044 173.292C182.044 172.024 181.537 170.756 181.029 169.489C181.283 169.489 181.791 169.742 182.298 169.742C182.044 169.742 181.537 169.742 181.029 169.489ZM191.948 160.109C192.456 159.602 192.964 159.095 193.471 158.588C194.741 157.827 196.519 157.574 195.757 155.292C195.757 155.038 195.249 154.785 194.995 155.038C192.71 155.546 193.471 157.32 193.471 158.841C193.217 159.348 192.71 159.855 191.948 160.109C191.44 160.869 190.678 161.376 190.17 162.137C189.408 162.644 188.647 163.151 187.885 163.911C187.631 164.165 187.885 164.672 187.885 165.179C188.393 165.179 188.901 165.179 189.155 164.926C189.662 164.165 189.662 163.151 190.17 162.137C190.678 161.376 191.186 160.869 191.948 160.109ZM175.188 158.588C175.188 158.588 175.442 158.588 175.188 158.588V158.588ZM86.3122 137.546H86.5662H86.3122C85.5504 137.546 85.0426 137.292 84.7886 137.292V137.546L85.0426 137.292H85.8044C85.5504 137.292 86.3122 137.546 86.3122 137.546ZM180.521 152.25C180.521 152.503 180.267 153.01 180.267 153.264C180.013 153.01 180.013 153.01 179.759 152.757C180.013 152.503 180.267 152.25 180.521 152.25C180.775 152.25 180.775 151.996 181.029 151.996C180.775 151.996 180.521 151.996 180.521 152.25ZM91.3909 53.6327C91.6448 53.3792 92.1526 53.1257 92.4066 52.6187C92.4066 52.6187 92.1526 52.3652 92.1526 52.1117C92.1526 52.6187 91.8987 53.1257 91.3909 53.6327L91.1369 53.8863L91.3909 53.6327ZM202.613 36.1402C203.121 36.1402 203.629 36.1402 204.136 36.3938C203.375 36.1402 202.867 36.1402 202.613 36.1402C202.359 36.1402 202.105 35.8867 201.851 35.8867C201.851 35.6332 202.105 35.6332 202.105 35.3797C202.359 35.6332 202.359 35.8867 202.613 36.1402ZM157.159 183.179C157.667 182.925 158.175 182.672 158.429 182.418C158.683 182.165 158.429 181.404 158.429 181.15C158.175 181.404 157.667 181.657 157.413 181.911C157.159 182.165 157.159 182.925 157.159 183.179C156.905 183.432 156.651 183.686 156.143 183.939C156.397 184.193 156.651 184.193 156.905 184.446C156.905 184.193 156.905 183.686 157.159 183.179ZM79.9639 67.069C79.71 67.3225 79.2021 67.8295 78.9482 68.0831C78.9482 68.3366 78.9482 68.5901 78.9482 68.8436C79.2021 68.5901 79.4561 68.5901 79.71 68.3366C79.71 67.8295 79.9639 67.3225 79.9639 67.069V66.562V67.069ZM120.339 88.6177C121.609 88.6177 122.878 88.1107 123.132 86.5896C123.132 86.3361 123.132 85.8291 122.878 85.8291C122.371 85.8291 121.863 85.8291 121.863 86.0826C121.101 87.0966 120.593 87.8572 120.339 88.6177C120.339 89.8853 120.339 90.8993 120.339 92.1669C120.593 92.1669 120.847 92.1669 121.101 92.1669C120.593 90.8993 120.339 89.8853 120.339 88.6177ZM85.0426 57.1819C84.5347 57.9425 84.0268 58.703 83.519 59.7171C83.7729 59.7171 83.7729 59.9706 84.0268 59.9706C84.2808 58.9565 84.5347 57.9425 85.0426 57.1819V56.4214V57.1819ZM96.9773 143.123C95.7077 143.123 95.4538 143.884 95.4538 145.151C95.4538 145.405 95.4538 145.658 95.7077 145.912C95.9616 145.658 96.2156 145.405 96.2156 145.151C96.4695 144.391 96.7234 143.63 96.9773 143.123C96.9773 142.109 96.7234 141.095 96.7234 140.335C97.7391 137.799 98.5009 135.518 97.7391 131.462C95.7077 135.011 94.438 137.292 96.9773 140.081C96.7234 141.095 96.7234 142.109 96.9773 143.123ZM206.93 139.321C208.453 137.8 209.977 136.278 209.723 133.997C210.739 133.743 212.008 133.743 212.77 132.983C213.532 132.476 213.532 131.208 213.786 130.448C213.786 130.448 213.278 129.941 213.278 130.194C212.77 130.701 212.008 130.955 211.501 131.462C210.993 132.222 210.485 133.236 209.977 134.25C207.438 135.011 206.168 136.532 206.93 139.321H206.676H206.93ZM199.82 148.194C200.074 148.194 200.328 148.194 200.581 147.94C201.851 147.433 203.883 147.433 203.121 145.151C202.359 145.912 201.851 146.673 201.089 147.433C200.581 147.94 200.074 148.194 199.82 148.194V148.701V148.194ZM190.424 51.8581C191.948 52.1117 193.471 52.3652 195.249 52.3652C195.503 52.3652 196.265 51.8581 196.265 51.3511C196.265 51.0976 195.757 50.3371 195.503 50.3371C193.471 49.83 191.44 49.5765 190.424 51.8581C189.916 52.3652 189.155 52.8722 188.139 53.3792C185.853 55.6609 183.822 58.196 182.552 61.4917C179.759 68.0831 176.966 74.4209 172.903 80.2517C172.649 80.5053 172.649 80.7588 172.649 81.0123C170.364 85.8291 168.078 90.8993 165.793 95.7161C165.793 95.9696 165.539 96.2231 165.793 96.4767C166.047 97.2372 166.301 97.9977 166.809 98.5048C166.809 98.5048 167.824 98.2513 168.078 97.9977C168.586 97.4907 169.094 96.7302 169.348 95.9696C174.68 85.322 179.251 74.4209 186.615 64.7874C188.647 62.2522 190.17 59.4636 191.948 56.4214C190.424 55.1538 189.155 54.3933 187.885 53.3792C188.901 52.8722 189.662 52.3652 190.424 51.8581ZM157.159 65.2944C155.382 65.0409 153.604 65.0409 153.096 67.069C152.334 69.6041 152.081 72.3928 151.573 74.9279C151.573 75.1815 151.827 75.1815 152.334 75.6885C155.382 72.6463 157.921 69.6041 157.159 65.2944ZM195.249 101.293C191.186 104.589 190.424 109.913 187.377 113.969C186.107 115.744 185.853 118.532 185.092 120.814V121.068V120.561C190.424 115.744 192.71 109.152 195.249 102.815C195.503 102.307 195.249 101.8 195.249 101.293C197.788 97.7442 197.788 97.7442 199.058 92.4204C196.011 95.2091 194.487 97.7442 195.249 101.293ZM77.9325 110.673C78.6943 109.659 79.9639 108.899 80.2179 107.885C81.9954 102.815 84.0268 97.9977 87.3279 93.688C88.0897 92.674 87.5819 91.9134 87.3279 90.8993C86.0583 85.8291 86.5662 84.815 91.3909 82.0263L91.6448 81.7728C91.6448 82.2799 91.8987 82.7869 91.8987 83.2939C92.6605 83.0404 93.6762 83.0404 93.9302 82.5334C101.04 71.3787 107.389 59.4636 115.006 48.816C115.26 48.5625 115.006 47.8019 115.006 47.5484C113.483 46.5343 112.213 45.7738 110.944 45.0132C109.166 43.4922 107.389 43.4922 105.865 45.0132C98.247 51.6046 91.6448 59.2101 88.8515 69.3506C87.074 76.1955 84.2808 82.5334 81.9954 89.3783C81.2336 91.9134 80.4718 94.7021 80.2179 97.2372C79.4561 101.547 78.6943 106.11 77.9325 110.673C77.9325 111.18 77.6785 111.688 77.4246 112.195C77.4246 112.448 77.4246 112.702 77.4246 112.955C77.6785 112.702 78.1864 112.448 78.1864 112.195C78.1864 111.688 77.9325 111.18 77.9325 110.673ZM180.775 112.702C182.044 111.688 183.06 111.18 183.568 110.42C185.599 106.871 187.631 103.322 189.155 99.5188C191.694 93.181 195.503 87.6037 199.566 82.0263C203.375 76.9561 205.914 71.1252 208.199 65.5479C208.707 64.2803 208.961 62.7593 208.707 61.7452C208.453 60.7311 207.184 59.7171 206.422 58.703C206.168 58.4495 205.406 58.703 204.898 58.9565C204.644 58.9565 204.644 59.9706 204.898 60.2241C206.676 61.7452 207.184 63.0128 205.914 65.0409C202.105 71.6323 196.772 77.2096 193.471 84.0545C192.964 85.0685 191.948 85.5755 191.44 86.5896C190.424 87.8572 189.662 89.1247 188.647 90.6458C185.346 96.4767 183.314 103.068 178.997 108.392C178.743 108.645 178.489 109.659 178.743 109.913C179.251 110.927 180.013 111.688 180.775 112.702ZM118.308 170.756C119.831 164.672 121.355 160.362 122.117 156.053C123.386 147.18 125.926 138.56 128.211 129.941C129.227 126.138 129.735 122.082 130.242 118.025C130.242 117.772 129.735 117.011 129.227 117.011C128.719 117.011 127.957 117.265 127.957 117.518C126.179 123.096 124.402 128.926 122.624 134.504C119.577 144.391 119.323 154.785 117.546 164.926C117.546 166.193 118.054 167.714 118.308 170.756ZM148.525 174.052C153.35 169.742 157.921 164.926 160.714 159.348C163.253 154.024 167.062 149.968 170.11 144.898C168.84 143.63 167.57 142.616 166.301 141.349C160.968 145.912 160.968 153.01 157.159 158.081C153.858 162.897 151.319 168.728 148.525 174.052ZM105.357 92.6739C100.786 96.2231 99.0088 101.04 97.9931 105.603C96.7234 110.927 95.1998 115.997 92.9144 120.814C92.6605 121.575 92.1526 122.335 92.1526 123.096C92.1526 123.603 92.4066 124.363 92.6605 124.363C93.1684 124.363 94.438 124.363 94.438 123.856C99.5167 114.223 104.849 104.843 105.357 92.6739ZM137.099 204.22C138.876 203.206 140.654 202.699 142.177 201.685C142.939 200.925 143.193 199.404 143.701 198.136C145.224 195.601 148.525 194.333 148.272 190.784C147.002 189.263 145.732 191.291 144.716 190.784C140.908 189.263 139.384 191.545 137.86 194.587C137.099 196.108 136.083 197.882 137.606 198.896C139.892 200.925 137.606 202.446 137.099 204.22ZM137.86 171.517C138.114 171.77 138.622 171.77 138.876 172.024C139.892 170.503 140.654 168.982 141.669 167.461C141.923 167.207 141.415 166.447 141.161 166.193C140.908 165.94 139.892 166.193 139.892 166.447C138.876 168.221 138.368 169.742 137.86 171.517ZM215.056 125.631C215.056 125.377 215.309 124.87 215.309 124.617C215.056 124.617 214.802 124.617 214.548 124.617C214.294 124.87 214.294 125.377 214.04 125.631C214.548 125.631 214.802 125.631 215.056 125.631ZM90.1212 88.8712L90.6291 89.1247V88.6177L90.1212 88.8712Z" fill="#EC3A87"/>
</g>
<defs>
<filter id="filter0_d" x="0" y="0" width="293" height="282" filterUnits="userSpaceOnUse" color-interpolation-filters="sRGB">
<feFlood flood-opacity="0" result="BackgroundImageFix"/>
<feColorMatrix in="SourceAlpha" type="matrix" values="0 0 0 0 0 0 0 0 0 0 0 0 0 0 0 0 0 0 127 0"/>
<feOffset dy="20"/>
<feGaussianBlur stdDeviation="25"/>
<feColorMatrix type="matrix" values="0 0 0 0 1 0 0 0 0 0 0 0 0 0 0.48 0 0 0 0.15 0"/>
<feBlend mode="normal" in2="BackgroundImageFix" result="effect1_dropShadow"/>
<feBlend mode="normal" in="SourceGraphic" in2="effect1_dropShadow" result="shape"/>
</filter>
</defs>
</svg>
