<svg width="52" height="47" viewBox="0 0 52 47" fill="none" xmlns="http://www.w3.org/2000/svg">
<path d="M50.9844 32.1666H50.9537V26.1854C50.9533 25.999 50.9165 25.8921 50.8802 25.8011L47.1987 15.949C47.0494 15.5493 46.6712 15.2849 46.2487 15.2849H40.241V8.84544C40.241 7.30185 39.0005 6.04614 37.4756 6.04614H19.5811C19.9073 6.6966 20.172 7.38415 20.3674 8.10098H37.4756C37.8804 8.10098 38.2098 8.43499 38.2098 8.84544V32.1665H9.17115V20.9517C8.46946 20.8388 7.79021 20.6579 7.1399 20.4157V32.1666H7.10913C6.5482 32.1666 6.09351 32.6265 6.09351 33.194V39.5136C6.09351 40.0811 6.5482 40.541 7.10913 40.541H11.8223C11.7482 40.8982 11.7092 41.2683 11.7092 41.6476C11.7092 44.5988 14.0709 46.9999 16.974 46.9999C19.877 46.9999 22.2388 44.5988 22.2388 41.6476C22.2388 41.2683 22.1998 40.8982 22.1257 40.541H37.0797C37.0056 40.8982 36.9666 41.2683 36.9666 41.6476C36.9666 44.5988 39.3284 46.9999 42.2315 46.9999C45.1345 46.9999 47.4963 44.5988 47.4963 41.6476C47.4963 41.2683 47.4573 40.8982 47.3831 40.541H50.9844C51.5453 40.541 52.0001 40.0811 52.0001 39.5136V33.194C52.0001 32.6266 51.5453 32.1666 50.9844 32.1666ZM40.2413 17.3398H45.5469L48.4684 25.1579H40.2413V17.3398ZM40.2413 27.2128H48.9225V32.1661H40.2413V27.2128ZM16.9741 44.9451C15.1911 44.9451 13.7406 43.4659 13.7406 41.6476C13.7406 39.8293 15.1912 38.3501 16.9741 38.3501C18.757 38.3501 20.2076 39.8292 20.2076 41.6476C20.2076 43.4659 18.7571 44.9451 16.9741 44.9451ZM42.2315 44.9451C40.4484 44.9451 38.9978 43.4659 38.9978 41.6476C38.9978 39.8293 40.4484 38.3501 42.2315 38.3501C44.0145 38.3501 45.465 39.8292 45.465 41.6476C45.465 43.4659 44.0145 44.9451 42.2315 44.9451ZM49.9688 38.4862H46.4913C46.4867 38.4862 46.4822 38.4863 46.4776 38.4864C45.5186 37.1587 43.9725 36.2953 42.2316 36.2953C40.4908 36.2953 38.9446 37.1587 37.9857 38.4863H21.2346C21.2298 38.4863 21.225 38.4864 21.2201 38.4865C20.2611 37.1588 18.7149 36.2954 16.9741 36.2954C15.2333 36.2954 13.6872 37.1588 12.7282 38.4864H8.12486V34.2216H49.9688V38.4862Z" fill="#222222"/>
<path d="M10.8882 22.116C16.9016 22.116 21.7764 17.1651 21.7764 11.058C21.7764 4.95083 16.9016 0 10.8882 0C4.87482 0 0 4.95083 0 11.058C0 17.1651 4.87482 22.116 10.8882 22.116Z" fill="#FDDEF0"/>
</svg>
