<svg width="53" height="44" viewBox="0 0 53 44" fill="none" xmlns="http://www.w3.org/2000/svg">
<path d="M22.5633 20.614C20.1164 20.614 18.1966 23.3055 18.1966 23.3055C18.1966 23.3055 16.3857 20.614 13.8288 20.614C11.3419 20.614 9.31103 22.6376 9.17802 25.0877C9.10318 26.4718 9.55552 27.5252 10.1927 28.4793C11.4662 30.3854 18.2047 34.7745 18.2047 34.7745C18.2047 34.7745 24.9178 30.4022 26.1998 28.4793C26.8384 27.5208 27.2895 26.4718 27.2143 25.0877C27.0814 22.6376 25.0504 20.614 22.5633 20.614Z" fill="#FDDEF0"/>
<path d="M52.3903 13.4146C51.1459 8.75329 48.1401 4.85441 43.927 2.43627C39.7324 0.0287435 34.8406 -0.621207 30.1534 0.605887C25.837 1.73587 22.1315 4.36314 19.6667 8.02849C15.9965 7.72624 12.3252 8.5364 9.0729 10.4031C4.85973 12.8214 1.85411 16.7202 0.609613 21.3814C-0.0435346 23.828 -0.172612 26.3257 0.226109 28.8056C0.580734 31.0112 1.3348 33.1039 2.46958 35.0341L0.367711 39.2054C0.195366 39.5474 0.23087 39.9555 0.459627 40.2634C0.688384 40.5714 1.0722 40.7281 1.45457 40.6688L6.61091 39.873C8.64064 41.5364 10.9714 42.7201 13.5461 43.3941C15.0947 43.7996 16.6651 44 18.2259 44C21.3891 44 24.511 43.1758 27.3198 41.5637C29.7742 40.155 31.8187 38.2438 33.344 35.9723C33.8278 36.0109 34.3119 36.0301 34.7956 36.0301C36.3607 36.0301 37.9215 35.8285 39.4541 35.4273C42.0288 34.7533 44.3595 33.5697 46.3893 31.9063L51.5454 32.7021C51.9279 32.761 52.3116 32.6048 52.5404 32.2967C52.7691 31.9887 52.8046 31.5806 52.6324 31.2387L50.5304 27.0673C51.6653 25.1371 52.4194 23.0444 52.774 20.8388C53.1726 18.359 53.0435 15.8611 52.3903 13.4146ZM26.2786 39.7986C22.5626 41.9314 18.2293 42.5071 14.077 41.4203C11.6544 40.7861 9.47628 39.6434 7.60295 38.0238C7.41291 37.8595 7.16997 37.7706 6.92082 37.7706C6.86762 37.7706 6.8141 37.7747 6.7608 37.7828L3.11259 38.3459L4.5757 35.4422C4.73552 35.125 4.7173 34.7488 4.52757 34.4481C2.14156 30.6665 1.46109 26.2107 2.6115 21.9016C3.71491 17.7686 6.37926 14.3119 10.1139 12.1685C13.8298 10.0355 18.1632 9.45951 22.3155 10.5466C30.9103 12.7967 36.0538 21.5528 33.7811 30.0654C32.6777 34.1985 30.0133 37.655 26.2786 39.7986ZM48.4724 26.4814C48.2827 26.782 48.2644 27.1583 48.4242 27.4754L49.8873 30.379L46.2393 29.816C45.9357 29.7694 45.6278 29.8574 45.397 30.0569C43.5237 31.6763 41.3455 32.819 38.9229 33.4533C37.4678 33.8341 35.9846 34.0122 34.4993 33.985C35.0352 32.9092 35.4662 31.7721 35.7829 30.5854C38.3458 20.9858 32.5425 11.111 22.8465 8.57265C22.5521 8.49556 22.2569 8.42592 21.9611 8.36363C24.1281 5.52978 27.1791 3.49743 30.6844 2.57973C34.8363 1.49284 39.1699 2.06866 42.8859 4.2015C46.6205 6.34495 49.285 9.80159 50.3885 13.9346C51.5389 18.2439 50.8584 22.6996 48.4724 26.4814Z" fill="#222222"/>
</svg>
