<svg width="35" height="35" viewBox="0 0 35 35" fill="none" xmlns="http://www.w3.org/2000/svg">
<rect width="35" height="35" rx="5" fill="#222222"/>
<path d="M17.2345 8.52504C16.0217 8.5246 14.8207 8.76323 13.7001 9.2273C12.5795 9.69137 11.5613 10.3718 10.7037 11.2296C9.84615 12.0875 9.16595 13.106 8.70203 14.227C8.23811 15.3479 7.99956 16.5493 8 17.7625C7.99956 18.9757 8.23811 20.1771 8.70203 21.2981C9.16595 22.419 9.84615 23.4375 10.7037 24.2954C11.5613 25.1533 12.5795 25.8337 13.7001 26.2977C14.8207 26.7618 16.0217 27.0004 17.2345 27C18.4473 27.0004 19.6483 26.7618 20.7689 26.2977C21.8895 25.8337 22.9077 25.1533 23.7653 24.2954C24.6229 23.4375 25.3031 22.419 25.767 21.2981C26.2309 20.1771 26.4695 18.9757 26.469 17.7625C26.4695 16.5493 26.2309 15.3479 25.767 14.227C25.3031 13.106 24.6229 12.0875 23.7653 11.2296C22.9077 10.3718 21.8895 9.69137 20.7689 9.2273C19.6483 8.76323 18.4473 8.5246 17.2345 8.52504ZM17.2345 23.7608C13.9199 23.7608 11.2382 21.0783 11.2382 17.7625C11.2382 14.4468 13.9199 11.7643 17.2345 11.7643C20.5492 11.7643 23.2308 14.4468 23.2308 17.7625C23.2308 21.0783 20.5492 23.7608 17.2345 23.7608ZM29 8.15612C28.9994 8.72936 28.7713 9.27892 28.3659 9.68405C27.9605 10.0892 27.4109 10.3167 26.8378 10.3167C26.5545 10.3167 26.2739 10.2609 26.0121 10.1525C25.7503 10.044 25.5125 9.885 25.3121 9.68457C25.1118 9.48415 24.9528 9.24621 24.8444 8.98435C24.736 8.72248 24.6801 8.44182 24.6801 8.15837C24.6801 7.87493 24.736 7.59427 24.8444 7.3324C24.9528 7.07053 25.1118 6.8326 25.3121 6.63217C25.5125 6.43175 25.7503 6.27277 26.0121 6.1643C26.2739 6.05583 26.5545 6 26.8378 6C28.0263 6 29 6.96728 29 8.15612Z" fill="white"/>
</svg>
