<svg width="25" height="23" viewBox="0 0 25 23" fill="none" xmlns="http://www.w3.org/2000/svg">
<path d="M9.7477 1.55965L12.4771 3.11928L14.0367 1.55965L17.9358 1.16974L21.445 2.33946L23.3945 5.84864V10.5275L17.9358 17.5459L12.4771 21.445L10.1376 19.4954L6.23854 15.9862L3.50919 12.867L1.16974 8.18809L2.33946 3.50919L5.70394 1.55965H9.7477Z" fill="#EC3A87"/>
<path d="M24.3952 4.58966C24.0073 3.69152 23.448 2.87763 22.7486 2.19356C22.0486 1.50744 21.2234 0.962198 20.3177 0.587472C19.3786 0.197361 18.3713 -0.00232025 17.3544 2.03405e-05C15.9278 2.03405e-05 14.5358 0.39069 13.3262 1.12862C13.0368 1.30515 12.7619 1.49903 12.5014 1.71028C12.241 1.49903 11.9661 1.30515 11.6767 1.12862C10.4671 0.39069 9.07511 2.03405e-05 7.64845 2.03405e-05C6.62113 2.03405e-05 5.62564 0.196802 4.68514 0.587472C3.77647 0.963672 2.95751 1.50482 2.25431 2.19356C1.55399 2.87686 0.994552 3.69094 0.607708 4.58966C0.205463 5.52438 0 6.51696 0 7.53849C0 8.50214 0.196782 9.50631 0.587452 10.5278C0.914457 11.3815 1.38326 12.267 1.98229 13.1612C2.93147 14.5763 4.2366 16.0522 5.85715 17.5483C8.54265 20.0283 11.2021 21.7415 11.315 21.811L12.0008 22.2508C12.3047 22.4447 12.6953 22.4447 12.9992 22.2508L13.685 21.811C13.7979 21.7386 16.4544 20.0283 19.1428 17.5483C20.7634 16.0522 22.0685 14.5763 23.0177 13.1612C23.6167 12.267 24.0884 11.3815 24.4125 10.5278C24.8032 9.50631 25 8.50214 25 7.53849C25.0029 6.51696 24.7974 5.52438 24.3952 4.58966ZM12.5014 19.9618C12.5014 19.9618 2.19933 13.3609 2.19933 7.53849C2.19933 4.58966 4.63884 2.19934 7.64845 2.19934C9.76385 2.19934 11.5986 3.38003 12.5014 5.10477C13.4043 3.38003 15.239 2.19934 17.3544 2.19934C20.364 2.19934 22.8035 4.58966 22.8035 7.53849C22.8035 13.3609 12.5014 19.9618 12.5014 19.9618Z" fill="#EC3A87"/>
</svg>
