<svg width="160" height="34" viewBox="0 0 160 34" fill="none" xmlns="http://www.w3.org/2000/svg">
<path d="M20.6332 9.90845V33.2271H16.4942V13.7848H4.139V33.2271H0V9.90845H20.6332Z" fill="white"/>
<path d="M41.3282 9.90845H44.6641V33.2271H40.5869V16.8738L27.3668 33.2271H24.0309V9.90845H28.1081V26.3223L41.3282 9.90845Z" fill="white"/>
<path d="M79.2587 33.2271H74.3784L65.4826 22.1432V33.2271H61.4054V22.2037L52.5096 33.2271H47.6911L57.637 21.1741L48.1853 9.90845H53.0038L61.4054 20.205V9.90845H65.4826V20.205L73.8841 9.90845H78.7644L69.2509 21.2346L79.2587 33.2271Z" fill="white"/>
<path d="M101.066 9.90868H105.205V33.2273H101.066V29.2298C99.027 32.3188 96 33.833 92.0463 33.833C88.7104 33.833 85.8687 32.6216 83.5212 30.2595C81.1737 27.8973 80 24.9901 80 21.5377C80 18.0853 81.1737 15.2387 83.5212 12.8159C85.8687 10.4538 88.7104 9.24243 92.0463 9.24243C96 9.24243 98.9653 10.7566 101.066 13.8456V9.90868ZM92.5405 29.9567C94.9498 29.9567 96.9884 29.1693 98.5946 27.5339C100.201 25.9592 101.004 23.9604 101.004 21.5983C101.004 19.2361 100.201 17.2374 98.5946 15.6626C96.9884 14.0879 94.9498 13.2399 92.5405 13.2399C90.1313 13.2399 88.1544 14.0273 86.5483 15.6626C84.9421 17.2374 84.139 19.2361 84.139 21.5983C84.139 23.9604 84.9421 25.9592 86.5483 27.5339C88.1544 29.1087 90.1931 29.9567 92.5405 29.9567Z" fill="white"/>
<path d="M133.374 9.90845V33.2271H129.297V16.2681L121.699 28.2H121.205L113.668 16.3286V33.2877H109.591V9.90845H114.039L121.452 21.7192L128.927 9.90845H133.374Z" fill="white"/>
<path d="M143.012 0.520508L139.923 11.8467H136.34L138.255 0.520508H143.012Z" fill="#EC3A87"/>
<path d="M146.718 16.2077C146.718 17.1163 147.151 17.8431 148.077 18.3882C149.004 18.9333 150.116 19.3573 151.413 19.7207C152.71 20.0235 154.008 20.4475 155.305 20.8109C156.602 21.2349 157.714 21.9617 158.641 22.9308C159.568 23.9604 160 25.2324 160 26.8071C160 28.927 159.197 30.6229 157.529 31.8948C155.861 33.1668 153.699 33.833 151.104 33.833C148.757 33.833 146.78 33.3485 145.174 32.3188C143.506 31.3497 142.332 30.0172 141.653 28.3213L145.236 26.3226C145.606 27.4128 146.348 28.3213 147.398 28.9876C148.448 29.6538 149.683 29.9567 151.166 29.9567C152.525 29.9567 153.637 29.7144 154.564 29.1693C155.429 28.6847 155.923 27.8368 155.923 26.7466C155.923 25.838 155.49 25.1112 154.564 24.5661C153.637 24.021 152.525 23.597 151.228 23.2336C149.931 22.9308 148.633 22.5068 147.336 22.0828C146.039 21.6589 144.927 20.932 144 19.963C143.073 18.9939 142.641 17.6614 142.641 16.1472C142.641 14.1484 143.444 12.4525 145.05 11.1806C146.656 9.84811 148.633 9.24243 151.104 9.24243C153.019 9.24243 154.749 9.66641 156.293 10.5144C157.776 11.3623 158.95 12.5737 159.691 14.0879L156.232 16.026C155.367 14.0273 153.699 13.0582 151.166 13.0582C149.992 13.0582 149.004 13.361 148.139 13.8456C147.151 14.4513 146.718 15.2387 146.718 16.2077Z" fill="white"/>
</svg>
