<svg width="200" height="42" viewBox="0 0 200 42" fill="none" xmlns="http://www.w3.org/2000/svg">
<path d="M25.7816 11.7305V40.8676H20.6098V16.5741H5.17175V40.8676H0V11.7305H25.7816Z" fill="#222222"/>
<path d="M51.6403 11.7305H55.8086V40.8676H50.714V20.4338L34.1953 40.8676H30.027V11.7305H35.1216V32.24L51.6403 11.7305Z" fill="#222222"/>
<path d="M99.0351 40.8676H92.9371L81.8217 27.018V40.8676H76.7271V27.0937L65.6117 40.8676H59.5909L72.0185 25.8071L60.2084 11.7305H66.2292L76.7271 24.5962V11.7305H81.8217V24.5962L92.3195 11.7305H98.4176L86.5303 25.8828L99.0351 40.8676Z" fill="#222222"/>
<path d="M126.283 11.7305H131.455V40.8676H126.283V35.8726C123.736 39.7324 119.954 41.6244 115.014 41.6244C110.845 41.6244 107.294 40.1108 104.361 37.1592C101.428 34.2077 99.9614 30.575 99.9614 26.2612C99.9614 21.9474 101.428 18.3904 104.361 15.3632C107.294 12.4116 110.845 10.898 115.014 10.898C119.954 10.898 123.659 12.79 126.283 16.6497V11.7305ZM115.631 36.7808C118.641 36.7808 121.189 35.797 123.196 33.7536C125.203 31.7859 126.206 29.2884 126.206 26.3369C126.206 23.3853 125.203 20.8879 123.196 18.9202C121.189 16.9525 118.641 15.8929 115.631 15.8929C112.621 15.8929 110.151 16.8768 108.144 18.9202C106.137 20.8879 105.133 23.3853 105.133 26.3369C105.133 29.2884 106.137 31.7859 108.144 33.7536C110.151 35.7213 112.698 36.7808 115.631 36.7808Z" fill="#222222"/>
<path d="M166.654 11.7305V40.8676H161.559V19.677L152.065 34.5861H151.447L142.03 19.7527V40.9432H136.936V11.7305H142.493L151.756 26.4882L161.096 11.7305H166.654Z" fill="#222222"/>
<path d="M178.695 0L174.836 14.1523H170.359L172.752 0H178.695Z" fill="#EC3A87"/>
<path d="M183.327 19.6013C183.327 20.7365 183.867 21.6447 185.025 22.3258C186.183 23.0069 187.572 23.5367 189.193 23.9908C190.814 24.3692 192.435 24.8989 194.056 25.353C195.677 25.8828 197.067 26.791 198.225 28.0018C199.382 29.2884 199.923 30.8777 199.923 32.8454C199.923 35.4942 198.919 37.6133 196.835 39.2026C194.751 40.7919 192.049 41.6244 188.807 41.6244C185.874 41.6244 183.404 41.0189 181.397 39.7324C179.313 38.5215 177.846 36.8565 176.997 34.7374L181.474 32.24C181.937 33.6022 182.864 34.7374 184.176 35.5699C185.488 36.4024 187.032 36.7808 188.885 36.7808C190.583 36.7808 191.972 36.4781 193.13 35.797C194.211 35.1915 194.828 34.132 194.828 32.7697C194.828 31.6345 194.288 30.7264 193.13 30.0452C191.972 29.3641 190.583 28.8343 188.962 28.3803C187.341 28.0018 185.72 27.4721 184.099 26.9423C182.478 26.4126 181.088 25.5044 179.931 24.2935C178.773 23.0826 178.232 21.4176 178.232 19.5256C178.232 17.0282 179.236 14.9091 181.243 13.3198C183.25 11.6548 185.72 10.898 188.807 10.898C191.2 10.898 193.362 11.4278 195.291 12.4873C197.144 13.5468 198.611 15.0605 199.537 16.9525L195.214 19.3743C194.134 16.8768 192.049 15.6659 188.885 15.6659C187.418 15.6659 186.183 16.0443 185.102 16.6497C183.867 17.4066 183.327 18.3904 183.327 19.6013Z" fill="#222222"/>
</svg>
