<svg width="47" height="52" viewBox="0 0 47 52" fill="none" xmlns="http://www.w3.org/2000/svg">
<path d="M33.4746 19.8593L36.4517 16.8305C35.4797 15.8416 35.4797 14.2383 36.4517 13.2495L31.6608 8.37537C30.6888 9.36421 29.1129 9.36421 28.1409 8.37537L16.853 19.8594H33.4746V19.8593Z" fill="#FDDEF0"/>
<path d="M43.0099 40.3149V48.3904C43.0099 49.2607 42.3136 49.9687 41.4576 49.9687H8.16558V20.875H41.4576C42.3135 20.875 43.0099 21.583 43.0099 22.4533V30.5288H45.0049V22.4533C45.0049 20.6995 43.7693 19.2338 42.1374 18.9102L43.7959 17.2229C44.369 16.6399 44.6846 15.8646 44.6846 15.04C44.6846 14.2154 44.369 13.44 43.7959 12.857L32.0453 0.902358C30.8627 -0.300786 28.9387 -0.300786 27.7561 0.902358L10.1212 18.8437H3.54727C1.59134 18.8437 0 20.463 0 22.4533V48.3905C0 50.3809 1.59124 52.0001 3.54727 52.0001H41.4576C43.4136 52.0001 45.0049 50.3809 45.0049 48.3905V40.315H43.0099V40.3149ZM29.1662 2.33931C29.5711 1.92736 30.2302 1.92736 30.6351 2.33931L42.3857 14.294C42.5816 14.4932 42.6896 14.7582 42.6896 15.04C42.6896 15.3217 42.5816 15.5867 42.3857 15.786L39.3803 18.8436H12.9438L29.1662 2.33931ZM6.17055 49.9687H3.54727C2.6914 49.9687 1.99504 49.2607 1.99504 48.3904V22.4533C1.99504 21.583 2.6914 20.875 3.54727 20.875H6.17055V49.9687Z" fill="#222222"/>
<path d="M47 41.3306H35.448C32.243 41.3306 29.6448 38.6851 29.6448 35.4218C29.6448 32.1585 32.243 29.5131 35.448 29.5131H47V41.3306Z" fill="#FDDEF0"/>
<path d="M36.1141 38.7967C34.2855 38.7967 32.7979 37.2827 32.7979 35.422C32.7979 33.5611 34.2855 32.0472 36.1141 32.0472C37.9427 32.0472 39.4304 33.5612 39.4304 35.422C39.4304 37.2827 37.9427 38.7967 36.1141 38.7967ZM36.1141 34.0784C35.3855 34.0784 34.7929 34.6811 34.7929 35.4219C34.7929 36.1627 35.3855 36.7653 36.1141 36.7653C36.8427 36.7653 37.4354 36.1626 37.4354 35.4219C37.4354 34.6811 36.8427 34.0784 36.1141 34.0784Z" fill="#222222"/>
</svg>
