<svg width="17" height="16" viewBox="0 0 17 16" fill="none" xmlns="http://www.w3.org/2000/svg">
<path d="M10.2053 6.69344V3.83663C10.2053 2.78157 9.6537 1.80032 8.65208 1.07361C7.69785 0.381288 6.43731 0 5.10268 0C3.76804 0 2.50747 0.381288 1.55327 1.07361C0.551617 1.80032 0 2.78157 0 3.83663V11.8918C0 13.9575 1.68055 15.638 3.74625 15.638H16.7226V6.69344H10.2053ZM2.12867 1.86669C2.91692 1.29479 3.97308 0.979839 5.10268 0.979839C6.23227 0.979839 7.28843 1.29479 8.07668 1.86669C8.81751 2.4042 9.22551 3.1038 9.22551 3.83663C9.22551 4.56945 8.81751 5.26905 8.07668 5.80656C7.28843 6.37846 6.23227 6.69341 5.10268 6.69341C3.97308 6.69341 2.91692 6.37846 2.12867 5.80656C1.38784 5.26905 0.979839 4.56948 0.979839 3.83663C0.979839 3.10377 1.38784 2.4042 2.12867 1.86669ZM9.22548 6.10652V6.69344H8.51761C8.56301 6.66278 8.60799 6.63168 8.65208 6.59967C8.86369 6.44613 9.05499 6.2811 9.22548 6.10652ZM15.7427 14.6582H14.0988V11.5617H13.119V14.6582H11.475V11.5617H10.4952V14.6582H8.85121V10.1494H7.87137V14.6582H6.22743V11.5617H5.24759V14.6582H3.74625C3.69844 14.6582 3.65088 14.657 3.60362 14.6546V11.5617H2.62378V14.4193C1.65629 13.988 0.979839 13.0177 0.979839 11.8918V6.10652C1.15033 6.2811 1.34163 6.44613 1.55327 6.59967C2.50751 7.292 3.76804 7.67328 5.10268 7.67328H15.7427V14.6582Z" fill="#5F5F5F"/>
<path d="M6.74187 2.45928C6.29777 2.13707 5.71555 1.95966 5.10237 1.95966C4.48918 1.95966 3.90693 2.1371 3.46284 2.45928C2.97847 2.81068 2.70068 3.31272 2.70068 3.8366C2.70068 4.36049 2.9785 4.86253 3.46284 5.21393C3.90693 5.53613 4.48918 5.71355 5.10237 5.71355C5.71555 5.71355 6.2978 5.5361 6.74187 5.21393C7.22623 4.86249 7.50402 4.36049 7.50402 3.8366C7.50402 3.31272 7.22623 2.81068 6.74187 2.45928ZM5.10237 4.73374C4.33166 4.73374 3.68052 4.3229 3.68052 3.8366C3.68052 3.35031 4.33166 2.93949 5.10237 2.93949C5.87308 2.93949 6.52418 3.35034 6.52418 3.8366C6.52418 4.3229 5.87308 4.73374 5.10237 4.73374Z" fill="#5F5F5F"/>
</svg>
