<svg width="24" height="24" viewBox="0 0 24 24" fill="none" xmlns="http://www.w3.org/2000/svg">
<path d="M22.6019 19.7899L22.6022 19.7905C23.1322 20.9724 23.4299 22.2185 23.4909 23.5H22.0639C21.9343 21.1302 20.8952 18.9227 19.1157 17.2416C17.2105 15.4417 14.6833 14.4548 12 14.4548C9.31669 14.4548 6.78955 15.4417 4.88434 17.2416C3.10482 18.9227 2.06569 21.1302 1.93609 23.5H0.508789C0.568131 22.2259 0.868684 20.9707 1.39761 19.7939L1.39788 19.7933C1.97361 18.508 2.80817 17.3384 3.85687 16.3497L3.85778 16.3489C4.91205 15.35 6.14091 14.567 7.51281 14.0202L7.52129 14.0169C7.52523 14.0154 7.53028 14.0136 7.53558 14.0116C7.54662 14.0073 7.56192 14.0011 7.57954 13.9928L8.36811 13.6203L7.64824 13.128C5.78386 11.8529 4.58516 9.79135 4.58516 7.47739C4.58516 3.64928 7.87667 0.5 12 0.5C16.1233 0.5 19.4148 3.64928 19.4148 7.47739C19.4148 9.79142 18.2161 11.8528 16.3522 13.1247L15.631 13.6168L16.4204 13.9898C16.4381 13.9981 16.4534 14.0043 16.4644 14.0085C16.4699 14.0106 16.475 14.0125 16.479 14.014L16.4867 14.017C17.8547 14.5639 19.0958 15.3552 20.1424 16.346L20.1434 16.347C21.1929 17.3347 22.0274 18.5043 22.6019 19.7899ZM22.0743 23.7528L22.0742 23.7511L22.0743 23.7528ZM7.77581 11.5072C8.9086 12.5774 10.4113 13.1633 12 13.1633C13.5887 13.1633 15.0914 12.5774 16.2242 11.5072C17.3579 10.4361 17.9893 9.00353 17.9893 7.47739C17.9893 5.95124 17.3579 4.51869 16.2242 3.4476C15.0914 2.37741 13.5887 1.79146 12 1.79146C10.4113 1.79146 8.9086 2.37741 7.77581 3.4476C6.64206 4.51869 6.01067 5.95124 6.01067 7.47739C6.01067 9.00353 6.64206 10.4361 7.77581 11.5072Z" fill="#222222" stroke="#222222"/>
</svg>
