<svg width="35" height="35" viewBox="0 0 35 35" fill="none" xmlns="http://www.w3.org/2000/svg">
<rect width="35" height="35" rx="5" fill="#222222"/>
<path d="M28.1864 12.1007C28.3429 11.581 28.1864 11.2 27.4464 11.2H24.9949C24.3712 11.2 24.0861 11.5296 23.9296 11.8917C23.9296 11.8917 22.6832 14.9301 20.917 16.9001C20.3469 17.4734 20.0864 17.6544 19.7757 17.6544C19.6203 17.6544 19.3945 17.4734 19.3945 16.9538V12.1007C19.3945 11.4771 19.2145 11.2 18.6947 11.2H14.8426C14.4536 11.2 14.2188 11.4883 14.2188 11.7632C14.2188 12.3532 15.1019 12.4895 15.1925 14.1523V17.7595C15.1925 18.5495 15.0505 18.6937 14.7375 18.6937C13.907 18.6937 11.8859 15.6441 10.6864 12.1532C10.4528 11.4749 10.2169 11.2011 9.59094 11.2011H7.14061C6.43972 11.2011 6.29999 11.5308 6.29999 11.8928C6.29999 12.5432 7.13055 15.7614 10.1689 20.0179C12.1944 22.9244 15.0461 24.5 17.6439 24.5C19.2011 24.5 19.3934 24.1502 19.3934 23.5468V21.3499C19.3934 20.6503 19.5421 20.5095 20.035 20.5095C20.3972 20.5095 21.021 20.6928 22.4753 22.093C24.1364 23.7535 24.4114 24.4989 25.3448 24.4989H27.7951C28.4949 24.4989 28.8448 24.1491 28.6436 23.4585C28.4234 22.7713 27.6297 21.7711 26.5767 20.5878C26.0044 19.9128 25.1492 19.1865 24.8887 18.8233C24.5254 18.3551 24.6305 18.1483 24.8887 17.7326C24.8899 17.7338 27.8756 13.5299 28.1864 12.1007Z" fill="white"/>
</svg>
