<svg width="35" height="35" viewBox="0 0 35 35" fill="none" xmlns="http://www.w3.org/2000/svg">
<rect width="35" height="35" rx="5" fill="#222222"/>
<path d="M17.4599 6.01385C11.6029 6.2896 6.9824 11.1318 7.00005 16.9524C7.00295 18.6657 7.41315 20.3537 8.19681 21.8773L7.02983 27.5037C7.01559 27.5741 7.01932 27.6469 7.04067 27.7154C7.06202 27.7839 7.10031 27.846 7.15198 27.8958C7.20366 27.9456 7.26706 27.9815 7.33632 28.0004C7.40558 28.0192 7.47847 28.0202 7.54824 28.0034L13.1008 26.6974C14.5714 27.4242 16.1858 27.8131 17.8261 27.8357C23.8121 27.9273 28.8021 23.2086 28.9885 17.2689C29.1892 10.8991 23.8959 5.70831 17.4599 6.01274V6.01385ZM24.0856 22.9638C23.2854 23.7611 22.3356 24.3928 21.2908 24.8224C20.246 25.2521 19.1267 25.4713 17.997 25.4676C16.6679 25.4717 15.3561 25.1665 14.1652 24.5764L13.392 24.1936L9.98699 24.9944L10.7039 21.5409L10.3223 20.7997C9.70363 19.6004 9.38281 18.2698 9.38696 16.9204C9.38696 14.6372 10.2826 12.4896 11.9084 10.8759C13.529 9.2718 15.7168 8.37168 17.997 8.37097C20.2979 8.37097 22.4598 9.26 24.0856 10.8748C24.8867 11.6642 25.5223 12.6052 25.9554 13.6431C26.3885 14.6809 26.6105 15.7947 26.6082 16.9193C26.6082 19.1826 25.6982 21.3644 24.0856 22.9649V22.9638Z" fill="white"/>
<path d="M23.3345 19.2862L21.2046 18.6796C21.0672 18.6401 20.9217 18.6384 20.7833 18.6744C20.645 18.7105 20.5189 18.7832 20.4182 18.8847L19.8976 19.412C19.7899 19.5211 19.6524 19.596 19.5023 19.6274C19.3522 19.6588 19.1962 19.6452 19.0538 19.5885C18.0467 19.1837 15.9268 17.313 15.3852 16.3765C15.3093 16.2442 15.2746 16.0923 15.2856 15.9402C15.2966 15.7881 15.3528 15.6427 15.4469 15.5228L15.9014 14.9382C15.9889 14.8262 16.0442 14.6925 16.0615 14.5514C16.0788 14.4103 16.0574 14.2672 15.9996 14.1374L15.1039 12.1255C15.0533 12.0131 14.9772 11.9139 14.8817 11.8358C14.7863 11.7577 14.674 11.7028 14.5538 11.6755C14.4335 11.6481 14.3085 11.649 14.1887 11.6781C14.0688 11.7072 13.9574 11.7637 13.863 11.8431C13.2685 12.3428 12.5626 13.1006 12.4776 13.9422C12.3265 15.4235 12.9663 17.2909 15.3863 19.5344C18.1824 22.1254 20.4226 22.4684 21.8797 22.1165C22.7069 21.918 23.3687 21.1205 23.7846 20.4687C23.8511 20.3651 23.8924 20.2474 23.9051 20.125C23.9178 20.0026 23.9016 19.8789 23.8579 19.7639C23.8141 19.6489 23.7439 19.5458 23.6531 19.4628C23.5622 19.3798 23.4531 19.3194 23.3345 19.2862Z" fill="white"/>
</svg>
